<svg xmlns="http://www.w3.org/2000/svg" viewBox="0 0 980 980"><g id="Calque_2" data-name="Calque 2"><g id="Calque_1-2" data-name="Calque 1"><path d="M969.6,514.6l-140,140A34.68,34.68,0,0,1,805,665a35.3,35.3,0,0,1-35-35V560H560V770h70a35.3,35.3,0,0,1,35,35,34.68,34.68,0,0,1-10.4,24.6l-140,140a34.29,34.29,0,0,1-49.2,0l-140-140A34.68,34.68,0,0,1,315,805a35.3,35.3,0,0,1,35-35h70V560H210v70a35.3,35.3,0,0,1-35,35,34.68,34.68,0,0,1-24.6-10.4l-140-140a34.29,34.29,0,0,1,0-49.2l140-140A34.68,34.68,0,0,1,175,315a35.3,35.3,0,0,1,35,35v70H420V210H350a35.3,35.3,0,0,1-35-35,34.68,34.68,0,0,1,10.4-24.6l140-140a34.29,34.29,0,0,1,49.2,0l140,140A34.68,34.68,0,0,1,665,175a35.3,35.3,0,0,1-35,35H560V420H770V350a35.3,35.3,0,0,1,35-35,34.68,34.68,0,0,1,24.6,10.4l140,140a34.29,34.29,0,0,1,0,49.2Z" style="fill:#a3a3a8"/></g></g></svg>